<?xml version="1.0" ?><svg enable-background="new 0 0 52 52" id="Layer_1" version="1.1" viewBox="0 0 52 52" xml:space="preserve" xmlns="http://www.w3.org/2000/svg" xmlns:xlink="http://www.w3.org/1999/xlink"><g><g><path d="M8.9583578,43.4469833c6.9047194-0.0161209,13.8094358-0.01688,20.7141495,0.0028381    c3.08144,0.0088005,6.1698265-0.0317688,9.2496414,0.0843391c1.2282639,0.0463028,3.77071-0.2357674,4.8755722,0.4155769    c0.983593,0.1783257,1.3482628,0.7646408,1.094017,1.7589493c0.5431175,1.46492-0.0678101,1.8726349-1.8327827,1.2231369    c-2.7375793,0.75597-6.8615608-0.0170708-9.7180786-0.0241776c-3.2393608-0.0080605-6.4787216-0.0161209-9.7180824-0.0241776    c-7.1265926-0.0177307-14.2531862-0.0354614-21.3797798-0.0531921c0.4166667,0.4166641,0.8333335,0.8333321,1.25,1.25    c0.4090025-3.8617401,2.1113319-5.4839249,5.1069875-4.8665543c1.5997448,0.1588211,1.5887308-2.3422737,0-2.5    c-4.6618991-0.462822-7.8868752,2.7388268-7.6069875,7.3665543c0.0408749,0.6758347,0.5395976,1.24823,1.25,1.25    c8.098402,0.0201454,16.1968021,0.0402946,24.2952042,0.0604439c6.6946754,0.016655,14.5783463,1.2008247,21.1137466-0.2955055    c0.5173073-0.1184425,0.9351234-0.6768532,0.9177017-1.205349c-0.1981087-6.0101585-4.6025314-6.6655159-9.6475182-6.8557053    c-9.9655285-0.3756905-19.9922161-0.1104546-29.9637909-0.0871773C7.3498974,40.950737,7.3469086,43.4507446,8.9583578,43.4469833    L8.9583578,43.4469833z"/></g><g><path d="M11.0435772,41.1070023c-0.0025263-5.1002121-0.4023275-10.3984108,0.0065403-15.4826546    c0.2841625-3.5335388,2.0903215-6.5581474,4.6368017-8.9739532c2.9557981-2.804122,6.162631-3.4403248,10.1325636-3.4122725    c2.905962,0.0205345,6.1701431-0.1999588,8.2323856,2.137495c1.9191933,2.1753149,2.9807281,4.9530363,3.2272415,7.7943258    c0.4795303,5.5270061,0.0990982,11.2267323,0.0922508,16.7698689c-0.0019836,1.6087151,2.4980125,1.6112061,2.5,0    c0.0082855-6.7051849,1.683094-15.9234867-1.3098831-22.2268333c-3.014328-6.3483152-6.9105339-7.0409651-13.6418629-6.9646721    c-6.4805126,0.073451-11.3326883,2.8297901-14.5864563,8.635107C6.865366,25.570591,8.5402241,34.3364258,8.5435772,41.1070023    C8.5443745,42.7155991,11.0443754,42.7183342,11.0435772,41.1070023L11.0435772,41.1070023z"/></g><g><path d="M17.2144375,26.7748013c0.8796577,0.7502232,1.5019951,1.4065971,2.1650143,2.388567    c0.468008,0.6931496,1.3340874,0.8112774,1.9632225,0.252985c1.3774128-1.2223129,2.7548237-2.4446259,4.1322365-3.6669369    c-0.5892544,0-1.1785107,0-1.767767,0c1.4658585,1.589035,3.0157814,3.0418129,4.6962414,4.4018955    c0.6522865,0.5279293,1.4762287,0.4636021,1.9632225-0.2529831c0.6146851-0.9044762,1.2293682-1.8089504,1.8440514-2.7134247    c0.9066963-1.3341503-1.2585125-2.586338-2.1586742-1.2617989c-0.6146851,0.9044743-1.2293701,1.8089504-1.8440533,2.7134247    c0.6544056-0.0843277,1.3088131-0.1686554,1.9632206-0.252985c-1.68046-1.3600826-3.2303829-2.8128605-4.6962414-4.4018955    c-0.4772072-0.5173092-1.2788258-0.4338856-1.767767,0c-1.3774128,1.222311-2.7548237,2.4446239-4.1322365,3.6669369    c0.6544075,0.0843277,1.308815,0.1686573,1.9632206,0.252985c-0.7428322-1.1001816-1.5426903-2.0303936-2.5559235-2.894537    C17.7644768,23.9684868,15.9879265,25.7287617,17.2144375,26.7748013L17.2144375,26.7748013z"/></g><g><path d="M23.4046383,27.1851215c-0.3283291,4.1098442-0.4081821,8.2166462-0.2398758,12.3360691    c0.0654964,1.6031227,2.5658379,1.6114502,2.5,0c-0.1683102-4.1194992-0.0884476-8.2263031,0.2398758-12.3360691    C26.0327759,25.581192,23.5321064,25.5895672,23.4046383,27.1851215L23.4046383,27.1851215z"/></g><g><path d="M23.125,40.0230179c0,0.1944427,0,0.3888893,0,0.5833321c0,1.6086311,2.5,1.6112938,2.5,0    c0-0.1944427,0-0.3888893,0-0.5833321C25.625,38.4143867,23.125,38.4117203,23.125,40.0230179L23.125,40.0230179z"/></g><g><path d="M22.958334,3.3563504c0,0.5277777,0,1.0555553,0,1.5833335c0,1.6086307,2.5,1.6112947,2.5,0    c0-0.5277781,0-1.0555558,0-1.5833335C25.458334,1.7477196,22.958334,1.7450553,22.958334,3.3563504L22.958334,3.3563504z"/></g><g><path d="M22.958334,5.1896839c0,0.4444442,0,0.8888888,0,1.333333c0,1.6086311,2.5,1.6112957,2.5,0    c0-0.4444442,0-0.8888888,0-1.333333C25.458334,3.581053,22.958334,3.5783887,22.958334,5.1896839L22.958334,5.1896839z"/></g><g><path d="M43.2037277,5.6061835c-1.6856766,1.7842226-3.2953262,3.7448268-5.1989365,5.3023314    c-1.2458801,1.0193596,0.5319138,2.7789221,1.767765,1.767767c1.9033928-1.5573273,3.5133362-3.5181866,5.1989403-5.3023314    C46.0760193,6.2048588,44.3113976,4.4337606,43.2037277,5.6061835L43.2037277,5.6061835z"/></g><g><path d="M3.8492272,7.7637835c0.377732,0.9166365,0.9760292,1.451705,1.7043555,2.0901384    c0.7073936,0.6200848,1.3578672,1.2967939,1.9635825,2.016078c0.4351273,0.5167122,1.3191395,0.4486275,1.767767,0    c0.5116749-0.5116749,0.4362001-1.2497807,0-1.767767C8.784667,9.5081701,8.2552299,8.9421482,7.6852937,8.4141426    C7.3002944,8.0574684,6.4649205,7.5966444,6.2599249,7.0991845C6.0028963,6.4754586,5.4300895,6.0316176,4.7222762,6.2261353    C4.1323504,6.3882556,3.5904305,7.1357665,3.8492272,7.7637835L3.8492272,7.7637835z"/></g><g><path d="M43.7916679,26.6063499c2.0555534,0,4.1111107,0,6.1666641,0c1.6086311,0,1.6112976-2.5,0-2.5    c-2.0555534,0-4.1111107,0-6.1666641,0C42.1830368,24.1063499,42.1803703,26.6063499,43.7916679,26.6063499L43.7916679,26.6063499    z"/></g><g><path d="M6.2916665,24.5230179c-1.4166665,0-2.8333333,0-4.25,0c-1.6086308,0-1.6112952,2.5,0,2.5c1.4166665,0,2.8333333,0,4.25,0    C7.9002972,27.0230179,7.9029617,24.5230179,6.2916665,24.5230179L6.2916665,24.5230179z"/></g></g></svg>