<?xml version="1.0"?>
<svg xmlns="http://www.w3.org/2000/svg" id="outline" viewBox="0 0 512 512" width="512" height="512"><title>security-shield-safety-block-man</title><path d="M176,184V168H160v16a8.00917,8.00917,0,0,1-8,8h-8v16h8A24.02718,24.02718,0,0,0,176,184Z"/><circle cx="128" cy="152" r="8"/><circle cx="192" cy="152" r="8"/><path d="M495.29541,292.7168a8.00075,8.00075,0,0,0-10.57812-4.01172L326.15771,360.05664q-1.57579.09009-3.10961.32813L304,361.97217V278.999a48.27242,48.27242,0,0,0-23.12939-41.05468l-51.02472-30.9104A79.53278,79.53278,0,0,0,239.99951,168L240,81.88867l15.15527-30.31055a8.00077,8.00077,0,0,0-2.35547-9.97851l-32-24A8.00222,8.00222,0,0,0,216,16H104a8.00222,8.00222,0,0,0-4.7998,1.59961l-32,24a8.00077,8.00077,0,0,0-2.35547,9.97851L80,81.88867V168a79.4839,79.4839,0,0,0,10.193,39.0105L39.12891,237.94531A48.2691,48.2691,0,0,0,16,278.999V488a8.00008,8.00008,0,0,0,8,8H296a8.00008,8.00008,0,0,0,8-8V422.02783l19.0481,1.5874q1.532.23951,3.10961.32813l158.55958,71.35156a7.9995,7.9995,0,1,0,6.56542-14.58984L348.572,416.48535a31.94489,31.94489,0,0,0,0-48.9707l142.71069-64.21973A7.99961,7.99961,0,0,0,495.29541,292.7168ZM96,168V115.31348l1.94141,1.9414A63.58075,63.58075,0,0,0,143.1958,136h33.6084a63.58075,63.58075,0,0,0,45.25439-18.74512l1.94092-1.94092V168A63.99976,63.99976,0,1,1,96,168ZM224,92.68652l-13.25488,13.25391A47.68578,47.68578,0,0,1,176.8042,120H143.1958a47.68578,47.68578,0,0,1-33.94092-14.05957L96,92.68652V88H224ZM160,248a80.77778,80.77778,0,0,0,16-1.59717v8.29932L170.23389,272H149.76611L144,254.70215v-8.312A80.05511,80.05511,0,0,0,160,248Zm-8.69409,40h17.38818l6.746,74.20605-8.9046,5.34278-22.06024-4.41211ZM176,380.52979l27.86914-16.72217a26.71137,26.71137,0,0,1,32.42078,3.80664l-4.95447.41308A8.00021,8.00021,0,0,0,224,376v32a8.00021,8.00021,0,0,0,7.33545,7.97266l22.36774,1.86377A63.46334,63.46334,0,0,1,226.30176,424H209.54053L176,410.584Zm64,20.10888V383.36133l59.02283-4.91846a31.91269,31.91269,0,0,0,0,27.11426Zm88.20923,7.35059-3.0105-.251a15.9826,15.9826,0,0,1,0-31.47656l3.0105-.251a15.99051,15.99051,0,0,1,0,31.97852ZM288,278.999v84.30616l-30.813,2.56787-9.36035-9.36035a42.72334,42.72334,0,0,0-52.18945-6.42481l-4.96179,2.977-6.55665-72.123,7.47059-22.41162A8.002,8.002,0,0,0,192,256V241.34375q2.27929-.99535,4.49487-2.13232l55.53589,31.73486a7.99768,7.99768,0,0,0,10.62549-2.50879l10.81738-16.22607A32.181,32.181,0,0,1,288,278.999Zm-28.2041-35.1145-6.31006,9.46509-42.09393-24.0542c1.77929-1.49707,3.51294-3.06348,5.17645-4.727,1.422-1.42188,2.76349-2.90137,4.064-4.40845ZM106.6665,32h106.667l24.52539,18.39355L227.05566,72H92.94434L82.14111,50.39355ZM108.642,229.27588,66.51416,253.34961l-6.30975-9.46484,39.1969-23.74512A80.67544,80.67544,0,0,0,108.642,229.27588ZM32,278.999a32.1785,32.1785,0,0,1,14.52667-26.78711L57.34375,268.4375a7.99768,7.99768,0,0,0,10.62549,2.50879l55.58868-31.76489q2.185,1.12317,4.44208,2.11889V256a8.002,8.002,0,0,0,.41064,2.53027l7.47059,22.41162L128.696,359.97852A40.9008,40.9008,0,0,1,96,320H80a56.94556,56.94556,0,0,0,45.6543,55.68945L160,382.55859V408H104a72.08124,72.08124,0,0,1-72-72ZM288,480H32V386.5376A87.95691,87.95691,0,0,0,104,424h62.45947l38.56934,15.42773A8.00164,8.00164,0,0,0,208,440h18.30176a79.10494,79.10494,0,0,0,52.83154-20.04395l8.8667.73877Z"/></svg>
