<?xml version="1.0" ?><svg id="Layer_1" style="enable-background:new 0 0 256 256;" version="1.1" viewBox="0 0 256 256" xml:space="preserve" xmlns="http://www.w3.org/2000/svg" xmlns:xlink="http://www.w3.org/1999/xlink"><g><path d="M92,57.2c14.1,0,25.6-11.5,25.6-25.6c0-14.1-11.5-25.6-25.6-25.6S66.3,17.4,66.3,31.5C66.3,45.7,77.8,57.2,92,57.2z    M92,15.6c8.8,0,15.9,7.1,15.9,15.9S100.7,47.4,92,47.4s-15.9-7.1-15.9-15.9S83.2,15.6,92,15.6z"/><path d="M208.3,72.1C208.3,72.1,208.3,72.1,208.3,72.1c-8-2.4-23.8-7.5-23.8-7.5c-1.7-0.5-3.5-0.1-4.8,1.1L164,80.4l-15.7-14.7   c-1.3-1.2-3.1-1.6-4.8-1.1c0,0-9.6,3.1-15.6,4.9c-6-1.8-15.6-4.9-15.6-4.9c-1.7-0.5-3.5-0.1-4.8,1.1L92,80.4L76.3,65.8   c-1.3-1.2-3.1-1.6-4.8-1.1c0,0-15.8,5.1-23.8,7.5c-4.5,1.4-7.2,4.9-7.2,9.6c0,0.4,0,1.2,0,1.3l3.9,70.4l0.1,1.2   c0.8,10.7,2.4,13.9,10.8,16.9l4.2,64c0.5,8.2,7.4,14.7,15.7,14.7h33.4c8.3,0,15.1-6.5,15.7-14.7l3.6-55.4l3.6,55.4   c0.5,8.2,7.4,14.7,15.7,14.7h33.5c8.2,0,15.1-6.4,15.7-14.7l4.2-64c8.3-3,10.1-6.3,10.8-16.9l4.1-71.8v-1   C215.5,77,212.8,73.5,208.3,72.1z M205.7,82.5l-3.9,70.2l-0.1,1.2c-0.5,7.2-0.5,7.2-7.1,9.3c-1.9,0.6-3.3,2.3-3.4,4.3l-4.4,67.3   c-0.2,3.1-2.8,5.6-5.9,5.6h-33.5c-3.1,0-5.8-2.5-6-5.6l-4.4-67.3c-0.1-2-1.6-3.8-3.5-4.4c-1.8-0.6-3.7-0.8-5.5-0.8   c-1.7,0-3.4,0.2-5,0.7c-0.2,0-0.4,0.1-0.5,0.1c-1.9,0.6-3.2,2.3-3.3,4.3l-4.4,67.3c-0.2,3.1-2.8,5.6-6,5.6H75.3   c-3.1,0-5.8-2.5-6-5.6l-4.4-67.3c-0.1-2-1.5-3.8-3.4-4.3c-6.6-2-6.6-2-7.1-9.3l-4-71.3l-0.2-0.9c0,0,0.1-0.1,0.4-0.2   c6-1.8,16.3-5.1,21.2-6.6l16.9,15.8c1.9,1.8,4.8,1.8,6.7,0l16.9-15.8c3.7,1.2,10.4,3.3,14.4,4.5c0.9,0.3,1.9,0.3,2.9,0   c4-1.2,10.6-3.3,14.4-4.5l16.9,15.8c1.9,1.8,4.8,1.8,6.7,0l16.9-15.8c4.9,1.6,15.2,4.8,21.2,6.6c0.3,0.1,0.5,0.2,0.3,0.3   L205.7,82.5z"/><path d="M144.7,107.7v-2c0-9.2-7.5-16.7-16.7-16.7s-16.7,7.5-16.7,16.7v1.1h-0.6c-2.7,0-4.9,2.2-4.9,4.9v24.8   c0,5.2,4.3,9.5,9.5,9.5h30.1c2.7,0,4.9-2.2,4.9-4.9v-24.8C150.2,112.5,148,109.2,144.7,107.7z M128,98.7c3.9,0,7,3.1,7,7v1.1h-14   v-1.1C121,101.8,124.2,98.7,128,98.7z M115.5,136.5v-19.9h0.4h0.2h24c0.1,0,0.2-0.1,0.4-0.1v19.8L115.5,136.5z"/><path d="M164,57.2c14.1,0,25.6-11.5,25.6-25.6c0-14.1-11.5-25.6-25.6-25.6c-14.1,0-25.6,11.5-25.6,25.6   C138.4,45.7,149.9,57.2,164,57.2z M164,15.6c8.8,0,15.9,7.1,15.9,15.9s-7.1,15.9-15.9,15.9c-8.8,0-15.9-7.1-15.9-15.9   S155.3,15.6,164,15.6z"/></g></svg>