<?xml version="1.0" ?><svg enable-background="new 0 0 52 52" id="Layer_1" version="1.1" viewBox="0 0 52 52" xml:space="preserve" xmlns="http://www.w3.org/2000/svg" xmlns:xlink="http://www.w3.org/1999/xlink"><g><g><path d="M11.2041769,13.4083853c3.5181303-0.0005045,7.0362616-0.001008,10.5543909-0.0015116    c-0.416666-0.416667-0.8333321-0.833334-1.25-1.25c0.0892735,2.22785,0.4878235,4.6836071,0.1428642,6.8951759    c-0.3383827,2.169405-2.6696148,4.4872665-4.6831617,5.3837795c0.420598,0,0.8411989,0,1.2617979,0    c-1.6299973-0.9934635-4.320035-3.5582027-4.6966391-5.4837036c-0.4186697-2.1405716-0.1635504-4.6272182-0.1673813-6.7946959    c-0.0028429-1.6085033-2.5028477-1.611414-2.5,0c0.0048466,2.7423391-0.67173,6.9395323,0.8679962,9.3814611    c0.8134584,1.2901058,2.1798687,2.3015079,3.2682743,3.3421993c0.7231417,0.6914406,1.6178751,1.9387913,2.7629995,1.8617516    c1.1273823-0.0758457,2.2777863-1.4314308,3.0389271-2.069725c1.0380878-0.8705463,2.0237103-1.7799435,2.6577148-2.9942303    c1.4429588-2.763649,0.665556-6.5536432,0.546608-9.5220127c-0.0270519-0.675086-0.5507793-1.2501001-1.25-1.25    c-3.5181293,0.0005035-7.0362606,0.0010071-10.5543909,0.0015116    C9.5955563,10.9086151,9.5928726,13.4086151,11.2041769,13.4083853L11.2041769,13.4083853z"/></g><g><path d="M14.5468426,35.9979782c0.0741282,0.5485497,0.0794191,0.682682-0.3905134,0.9062653    c-0.3213997,0.152916-0.615715,0.356102-0.8624725,0.0111198c-0.4611387-0.6447029,0.4064674-1.4067345,1.034421-1.3336182    c-0.2102995-0.0568848-0.420599-0.1137733-0.6308985-0.1706581c0.3125734,0.1374664,0.5380278,0.5075912,0.8754234,0.6761589    c1.4351244,0.7170105,2.7027578-1.4387512,1.2617979-2.1586761c-0.1910934-0.0954742-0.3588953-0.3592796-0.5518713-0.4917679    c-0.3434896-0.2358246-0.7438097-0.3737717-1.1652803-0.3796043c-0.7232485-0.0100021-1.477335,0.3918953-2.0492926,0.8033371    c-1.3181562,0.9482269-1.8027439,2.7150879-1.017374,4.1697845c0.8546829,1.5830803,2.493269,1.8576508,4.0350561,1.1817055    c0.7324686-0.321125,1.3696575-0.7434578,1.717474-1.4888458c0.3595905-0.7706146,0.264204-1.5759773,0.1542282-2.389801    c-0.090498-0.6696777-0.9494705-1.0346909-1.5376492-0.8730507    C14.6972208,34.6589279,14.4560604,35.3261948,14.5468426,35.9979782L14.5468426,35.9979782z"/></g><g><path d="M18.6185837,33.0181274c0.6670322,2.3799553,1.0901527,6.678215-1.5574932,8.1901779    c-1.8309488,1.0455818-5.6288309,0.5011253-6.9418669-0.989048c-2.2916718-2.6008339-1.9393768-6.1838074,1.0528049-8.0740471    c2.8836012-1.8216457,5.4045267-0.0729752,7.7334566,1.6750908c1.287117,0.966095,2.5345459-1.2033653,1.2617989-2.1586742    c-3.5316162-2.6507893-7.3760233-4.081728-11.1681528-1.0079536c-3.2975521,2.672884-3.9201498,7.319479-1.2124405,10.6811352    c1.1458426,1.4225769,2.2463169,2.4234962,4.0933828,2.6420975c1.8714323,0.2214851,4.3490658,0.4091263,6.0963345-0.4501839    c3.9657555-1.9503632,4.0763474-7.5214691,3.0528736-11.1731949    C20.5957413,30.8066692,18.1829605,31.4638386,18.6185837,33.0181274L18.6185837,33.0181274z"/></g><g><path d="M6.2874799,35.324604C5.0204511,35.3244934,3.753422,35.324379,2.486393,35.3242683    c0.4166665,0.4166641,0.8333333,0.8333321,1.25,1.25c0.0195556-4.3100891,0.0391111-8.6201744,0.0586669-12.9302597    c0.0105298-2.320816,0.0210598-4.6416321,0.0315897-6.9624481c0.006403-1.4112091-0.6582744-4.9400349,0.027077-5.9678116    c1.7180793-2.5764933,7.949563-1.2227144,10.7535715-1.222681c4.480442,0.0000534,8.9608822,0.0001068,13.4413242,0.0001602    c-0.416666-0.416667-0.833334-0.833334-1.25-1.25c0.0548267,5.5728521,0.0869522,11.1457825,0.086647,16.7189198    c-0.0001335,2.4697075,0.4503593,5.4488735-0.0198879,7.867836c-0.5819263,2.9934425-2.7650528,2.1637077-5.4942379,2.1619759    c-1.6086731-0.0010223-1.6112499,2.4989738,0,2.5c4.6570187,0.0029564,7.9054489,1.5035553,7.9893188-3.6785049    c0.1378746-8.5188999,0.0219727-17.0512409-0.0618401-25.5702267c-0.0066471-0.6756744-0.567318-1.2499924-1.25-1.2500005    c-5.4405365-0.0000644-10.881073-0.0001292-16.3216095-0.0001936C9.7112398,6.9910102,3.3132079,5.7566652,1.74192,7.5754385    C1.2465475,8.1488342,1.418973,9.0564394,1.3582395,9.7191133c-0.2693366,2.9387875-0.0272105,5.9972181-0.0406156,8.9517183    c-0.027077,5.9678116-0.054154,11.9356232-0.0812311,17.9034367c-0.0030661,0.6757774,0.5751905,1.249939,1.2500001,1.25    c1.267029,0.0001106,2.5340581,0.0002251,3.8010869,0.0003357C7.8961167,37.824749,7.8987689,35.324749,6.2874799,35.324604    L6.2874799,35.324604z"/></g><g><path d="M28.537529,13.4929686c2.1938782-0.0013075,6.7230835-0.9383955,8.6889267-0.0051785    c2.1406136,1.016181,3.9239197,5.8448191,5.0864677,7.7882318c1.4084358,2.3544598,9.6706848,13.2117672,4.723278,14.073267    c-1.5820503,0.275486-0.9114456,2.6851387,0.6646004,2.4106979c0.7054672-0.0869179,1.395298-0.2429657,2.0694885-0.4681435    c0.5422363-0.1515503,0.901535-0.6524811,0.9177017-1.205349c0.0898705-3.0737953,0.3699493-6.267498-1.0955811-9.0310802    c-1.6698341-3.1488495-4.507431-6.0360374-6.375248-9.1871223c-1.1506653-1.9412136-2.5020676-5.5336952-4.6995888-6.626255    c-2.4778633-1.2319393-7.2567825-0.2506914-9.9800453-0.2490683C26.9289398,10.993928,26.9261932,13.4939299,28.537529,13.4929686    L28.537529,13.4929686z"/></g><g><path d="M27.7874813,37.9079399c1,0,2,0,3,0c1.6086292,0,1.6112957-2.5,0-2.5c-1,0-2,0-3,0    C26.1788502,35.4079399,26.1761856,37.9079399,27.7874813,37.9079399L27.7874813,37.9079399z"/></g><g><path d="M29.2891197,21.5330486c4.4430161,0.1751614,8.8860283,0.3503227,13.3290443,0.5254841    c1.60886,0.063427,1.6060562-2.4366837,0-2.5c-4.4430161-0.1751614-8.8860283-0.3503227-13.3290443-0.5254841    C27.6802578,18.9696217,27.6830635,21.4697323,29.2891197,21.5330486L29.2891197,21.5330486z"/></g><g><path d="M39.7193298,37.0831413c0.0437088,0.1998825-0.2310219,0.414669-0.4811325,0.4516487    c-0.4321213,0.0638962-0.7698936-0.2366142-0.9446487-0.5972519c-0.0640411-0.132164-0.0821648-0.5373878-0.1891289-0.6236496    c0.0197449-0.2183685-0.0556183-0.1691742-0.2260971,0.1475754c0.1421623-0.0230484,0.28545-0.0351639,0.4298668-0.0363503    c0.3186111-0.0212021,0.6390381-0.0291443,0.9582214-0.0315247c0.2318573-0.0017281,0.73563,0.1526184,0.6206894-0.1529808    c0.561142,1.4919395,2.9787064,0.8455925,2.4106979-0.6646004c-0.7166595-1.9054184-2.8149261-1.8002205-4.5315208-1.6093445    c-1.9847794,0.2206993-2.5097351,2.0106239-1.8600349,3.7045288c0.5896263,1.5372772,2.0390472,2.5637703,3.7189026,2.3200035    c1.7199745-0.2495918,2.8753357-1.8785667,2.5048828-3.5726547    C41.7864914,34.8475494,39.3758392,35.5123672,39.7193298,37.0831413L39.7193298,37.0831413z"/></g><g><path d="M44.5957184,35.888382c1.0965271,2.0490227-2.2250328,6.2039528-4.2534256,6.7892761    c-0.8773308,0.25317-2.2934608,0.1037483-3.1700554-0.1124992c-2.1871796-0.539547-2.8055229-1.8786621-3.0514717-3.9109726    c-0.2665634-2.2026443-0.9881897-5.5485992,1.2087402-6.8901348c2.842289-1.7356205,6.9607849-0.7042065,8.044384,2.5059261    c0.5118332,1.5162926,2.9272804,0.8657646,2.4106979-0.6646004c-1.5563812-4.6107254-6.3331909-6.0943508-10.7300377-4.4305649    c-4.6258831,1.7504559-4.0544682,6.9560852-3.2132225,11.0390396c0.8801117,4.2715797,5.7434845,6.1075935,9.7431297,4.7790642    c1.7954254-0.5963745,3.4533615-2.9194946,4.5363808-4.4150314c1.3527069-1.8679428,1.7386055-3.8863525,0.6335564-5.9513016    C45.9949951,33.2075272,43.8360329,34.468792,44.5957184,35.888382L44.5957184,35.888382z"/></g><g><path d="M43.5862808,34.405426c0.1936302,0.479454,0.3920326,0.8297234,0.7306633,1.2228394    c0.4408417,0.5117722,1.3153877,0.4523773,1.767765,0c0.5074081-0.5074081,0.4419365-1.2547264,0-1.7677689    c0.021946,0.0254745-0.1070137-0.1674232-0.0877304-0.1196709c-0.2526283-0.6255455-0.833107-1.0666656-1.5376472-0.8730469    C43.8657494,33.0309029,43.3319855,33.7757454,43.5862808,34.405426L43.5862808,34.405426z"/></g></g></svg>