<?xml version="1.0" ?><svg enable-background="new 0 0 32 32" height="32px" id="svg2" version="1.1" viewBox="0 0 32 32" width="32px" xml:space="preserve" xmlns="http://www.w3.org/2000/svg" xmlns:cc="http://creativecommons.org/ns#" xmlns:dc="http://purl.org/dc/elements/1.1/" xmlns:inkscape="http://www.inkscape.org/namespaces/inkscape" xmlns:rdf="http://www.w3.org/1999/02/22-rdf-syntax-ns#" xmlns:sodipodi="http://sodipodi.sourceforge.net/DTD/sodipodi-0.dtd" xmlns:svg="http://www.w3.org/2000/svg"><g id="background"><rect fill="none" height="32" width="32"/></g><g id="label_x5F_security"><path d="M16,10c1.104,0,2-0.896,2-2s-0.896-2-2-2c-1.104,0-2,0.896-2,2S14.896,10,16,10z M28,15.518V8.45L16,0.814L4,8.452V32h24   v-1.518c2.411-1.614,4-4.361,4-7.481C32,19.88,30.411,17.132,28,15.518z M6,29.999V9.548l10-6.364l10,6.364v4.974   C25.061,14.19,24.054,14,23,14c-4.972,0-9,4.028-9,9.001c0,2.828,1.307,5.349,3.347,6.998H6z M23,30   c-3.865-0.008-6.995-3.135-7-6.999c0.006-3.866,3.135-6.995,7-7.001c3.864,0.006,6.991,3.135,6.999,7.001   C29.991,26.865,26.864,29.992,23,30z"/><path d="M26.144,22.001c0.008-0.131,0.014-0.267,0.014-0.409c-0.006-0.678-0.088-1.491-0.556-2.258   c-0.457-0.779-1.438-1.36-2.602-1.333c-1.165-0.027-2.148,0.554-2.605,1.333c-0.47,0.767-0.552,1.58-0.556,2.258   c0,0.143,0.006,0.278,0.014,0.409H19V27h8v-4.999H26.144z M21.837,21.592c-0.004-0.478,0.093-0.958,0.254-1.198   c0.173-0.227,0.27-0.365,0.909-0.393c0.637,0.027,0.73,0.164,0.904,0.393c0.162,0.24,0.259,0.723,0.253,1.198   c0,0.145-0.008,0.28-0.019,0.409h-2.282C21.846,21.87,21.837,21.733,21.837,21.592z"/></g></svg>