<?xml version="1.0"?>
<svg xmlns="http://www.w3.org/2000/svg" viewBox="0 0 512 512" width="512" height="512"><g id="Out_line" data-name="Out line"><path d="M355.34668,297.88086,256,381.541l-99.34668-83.66016-10.30664,12.23828,104.5,88a8.00015,8.00015,0,0,0,10.30664,0l104.5-88Z"/><path d="M112,64.8877A235.97926,235.97926,0,0,0,230.02734,44.59375L256,32.78809l25.97266,11.80566A235.96488,235.96488,0,0,0,400,64.8877V96h16V56a8.00087,8.00087,0,0,0-8.99219-7.93848A220.03929,220.03929,0,0,1,288.59375,30.02734L259.31055,16.7168a8.00829,8.00829,0,0,0-6.6211,0l-29.2832,13.31054A220.02793,220.02793,0,0,1,104.99219,48.06152,8.00087,8.00087,0,0,0,96,56V96h16Z"/><path d="M173.15332,269.94043l-10.30664,12.23828,88,74.10547a8.00015,8.00015,0,0,0,10.30664,0l88-74.10547-10.30664-12.23828L256,339.70605Z"/><path d="M384,152V89.73633a7.99957,7.99957,0,0,0-7.88916-7.999A250.45172,250.45172,0,0,1,275.35205,59.15918l-16.0415-7.292a8.00829,8.00829,0,0,0-6.6211,0l-16.0415,7.292A250.45172,250.45172,0,0,1,135.88916,81.7373,7.99957,7.99957,0,0,0,128,89.73633V152h16V97.51172a266.23684,266.23684,0,0,0,99.269-23.78613L256,67.93848l12.731,5.78711A266.23684,266.23684,0,0,0,368,97.51172V152Z"/><path d="M495.76123,486.05957l-7.89368-31.57471-23.47717-172.1665,29.85669-37.32031a8.00353,8.00353,0,0,0,1.44531-7.19629l-16-56a7.99957,7.99957,0,0,0-5.752-5.5625L456,171.75415v-8.44067l5.65674-5.65625a8.00091,8.00091,0,0,0,1.49853-9.23535L456,134.11133V128h8V112H408a8.001,8.001,0,0,0-7.69238,5.80176l-14.731,51.5581-27.51709,6.8794a7.99957,7.99957,0,0,0-5.752,5.5625l-16,56a8.0016,8.0016,0,0,0,2.03564,7.85547l37.19385,37.19336L352.13245,454.48486l-7.89368,31.57471A8.00058,8.00058,0,0,0,352,496h40a8.00008,8.00008,0,0,0,8-8V457.20361L422.89551,382.792,440,456.91016V488a8.00008,8.00008,0,0,0,8,8h40a8.00058,8.00058,0,0,0,7.76123-9.94043ZM414.03418,128H440v8a7.99934,7.99934,0,0,0,.84473,3.57812l5.42138,10.8418-3.92285,3.92285A8.00076,8.00076,0,0,0,440,160v8h-4.68652l-5.65674-5.65723a8.00018,8.00018,0,0,0-11.31348,11.31446l8,8a8.00274,8.00274,0,0,0,4.13867,2.19726l-7.72509,11.58887-21.77149-21.77148Zm-47.61133,62.64062,23.1228-5.781L416,211.314V256h16V210.42188l14.65625-21.98438a7.98758,7.98758,0,0,0,1.03406-2.269l17.88684,4.47216,13.59619,47.58692L464,257.19336V232a8,8,0,0,0-16,0v40H392V232a8,8,0,0,0-16,0v28.68652l-23.01465-23.01464ZM390.98328,288h58.03344L470.835,448h-16.4707L432,351.08984V320H416v30.79639L386.09131,448H369.165ZM362.24609,480l4.00025-16H384v16ZM456,480V464h17.75366l4.00025,16Z"/><path d="M159.86755,454.48486,136.46289,282.85059l37.19385-37.19336a8.0016,8.0016,0,0,0,2.03564-7.85547l-16-56a7.99957,7.99957,0,0,0-5.752-5.5625l-27.51715-6.8794-14.7309-51.5581A8.001,8.001,0,0,0,104,112H48v16h8v6.11133l-7.15527,14.31055a8.00091,8.00091,0,0,0,1.49853,9.23535L56,163.31348v8.44067l-17.94043,4.48511a7.99957,7.99957,0,0,0-5.752,5.5625l-16,56a8.00353,8.00353,0,0,0,1.44531,7.19629l29.85675,37.32031L24.13245,454.48486l-7.89368,31.57471A8.00058,8.00058,0,0,0,24,496H64a8.00008,8.00008,0,0,0,8-8V456.91016L89.10449,382.792,112,457.20361V488a8.00008,8.00008,0,0,0,8,8h40a8.00058,8.00058,0,0,0,7.76123-9.94043ZM71.15527,139.57812A7.99934,7.99934,0,0,0,72,136v-8H97.96582l13.04883,45.67188L89.24316,195.44336l-7.72509-11.58887a8.00274,8.00274,0,0,0,4.13867-2.19726l8-8a8.00018,8.00018,0,0,0-11.31348-11.31446L76.68652,168H72v-8a8.00076,8.00076,0,0,0-2.34326-5.65723l-3.92285-3.92285Zm-24.73242,51.0625,17.88684-4.47216a7.98428,7.98428,0,0,0,1.03406,2.269L80,210.42188V256H96V211.314l26.45441-26.45434,23.12274,5.781,13.4375,47.03126L136,260.68652V232a8,8,0,0,0-16,0v40H64V232a8,8,0,0,0-16,0v25.19336L32.82666,238.22754ZM62.98328,288h58.03344L142.835,448H125.90869L96,350.79639V320H80v31.08984L57.63574,448H41.165ZM34.24609,480l4.00019-16H56v16ZM128,480V464h17.75372l4.00019,16Z"/></g></svg>
